inDegrees=no
num_controls=7
num_derivatives=13
num_iterations=109
num_multipliers=7
num_parameters=0
num_slacks=7
num_states=26
objective=5.447613
objective_accelerations=0.360860
objective_balance=0.051145
objective_effort=0.354284
objective_height=4.585091
objective_ligament=0.096233
solver_duration=1085.905586
status=Solve_Succeeded
success=true
DataType=double
version=3
OpenSimVersion=4.4-2022-07-23-0e9fedc
endheader
time	/jointset/ground_pelvis/pelvis_tilt/value	/jointset/ground_pelvis/pelvis_tx/value	/jointset/ground_pelvis/pelvis_ty/value	/jointset/hip_l/hip_flexion_l/value	/jointset/hip_l/hip_adduction_l/value	/jointset/hip_l/hip_rotation_l/value	/jointset/back/lumbar_extension/value	/jointset/patellofemoral_l/patellar_flexion_l/value	/jointset/knee_l/knee_flexion_l/value	/jointset/knee_l/knee_adduction_l/value	/jointset/knee_l/knee_rotation_l/value	/jointset/ankle_l/ankle_angle_l/value	/jointset/subtalar_l/subtalar_angle_l/value	/jointset/ground_pelvis/pelvis_tilt/speed	/jointset/ground_pelvis/pelvis_tx/speed	/jointset/ground_pelvis/pelvis_ty/speed	/jointset/hip_l/hip_flexion_l/speed	/jointset/hip_l/hip_adduction_l/speed	/jointset/hip_l/hip_rotation_l/speed	/jointset/back/lumbar_extension/speed	/jointset/patellofemoral_l/patellar_flexion_l/speed	/jointset/knee_l/knee_flexion_l/speed	/jointset/knee_l/knee_adduction_l/speed	/jointset/knee_l/knee_rotation_l/speed	/jointset/ankle_l/ankle_angle_l/speed	/jointset/subtalar_l/subtalar_angle_l/speed	/forceset/tau_hip_flexion_l	/forceset/tau_hip_adduction_l	/forceset/tau_hip_rotation_l	/forceset/tau_knee_flexion_l	/forceset/tau_ankle_angle_l	/forceset/tau_subtalar_angle_l	/forceset/tau_lumbar_extension	lambda_cid13_p0	lambda_cid13_p1	lambda_cid13_p2	lambda_cid13_p3	lambda_cid13_p4	lambda_cid13_p5	lambda_cid14_p0	/jointset/ground_pelvis/pelvis_tilt/accel	/jointset/ground_pelvis/pelvis_tx/accel	/jointset/ground_pelvis/pelvis_ty/accel	/jointset/hip_l/hip_flexion_l/accel	/jointset/hip_l/hip_adduction_l/accel	/jointset/hip_l/hip_rotation_l/accel	/jointset/back/lumbar_extension/accel	/jointset/patellofemoral_l/patellar_flexion_l/accel	/jointset/knee_l/knee_flexion_l/accel	/jointset/knee_l/knee_adduction_l/accel	/jointset/knee_l/knee_rotation_l/accel	/jointset/ankle_l/ankle_angle_l/accel	/jointset/subtalar_l/subtalar_angle_l/accel	gamma_cid13_p0	gamma_cid13_p1	gamma_cid13_p2	gamma_cid13_p3	gamma_cid13_p4	gamma_cid13_p5	gamma_cid14_p0
0.5	0.01977982058924353	0.02014615028639365	0.8517151786430269	0.6431396582218202	-0.3303901752548972	-0.1143337366427819	-0.7594824928669773	0.8229345233382671	0.8229345233384791	-0.1125458814117211	-0.1744923290086894	0.2204407365654955	0.04036473434157702	0.1773519537177744	-0.04886158456862274	-0.2599850326439351	0.8374131109289313	-0.06003280308963714	0.471496816053589	-0.852669394835909	1.525041478497472	1.525041478497453	0.1233789261298079	0.000213093370146873	0.6173148711106702	0.1652655718660734	-0.184155292027532	0.0390545767809613	-0.004502893247772758	-0.2429624484624223	0.007132940286380543	0.03848443096414583	0.2725915824717917	-41.37709950740133	-12.18066069889847	4.585039724488809	0.3639343569704848	-698.4026336862098	-74.17913282108604	-13.61933324917464	0.03780350947295885	0.3199254864290927	-0.17499270801221	-1.000995052583917	0.1759664997497775	-0.4150413885510499	1.36530762259156	-1.192601282124088	-1.192601282124057	-0.2914368043075169	0.01653283475115351	-0.3044607406477148	0.2189195637292348	-3.45345967421954e-08	-5.304288521524317e-07	7.285903843849792e-08	-7.271569428187907e-08	-4.489153789260805e-08	-2.963992057227204e-07	-5.08494665858709e-08
0.51	0.02155484028847637	0.01967356299507598	0.8491071842810868	0.6514624383906843	-0.330981913648331	-0.1096407951879088	-0.7679396053803317	0.8381228673399148	0.8381228673404331	-0.1113266998239707	-0.1744901282663627	0.2265976256630144	0.04202776527727461	0.1776279231973486	-0.04565233256136455	-0.2615497375663439	0.8270013871478356	-0.05831713156070578	0.4670143280681001	-0.8386370362479051	1.512388606529896	1.512388606529891	0.1204616555231513	0.0002159804843251601	0.6139730234563421	0.1673104282110795	-0.1877645682185751	0.04037922394219712	-0.004686167758936191	-0.2462623583942397	0.004007239707011895	0.03852267209422365	0.2771386787072714	-42.54623967137331	-11.94913037604734	4.498519146090176	0.7559887957146598	-701.5825567278567	-73.88491064208185	-13.04279742250816	0.01888327254625857	0.3219427077326816	-0.1376029927934448	-1.082491619062187	0.1690599346437179	-0.4764748330554779	1.43961071660791	-1.337427503458201	-1.337427503456087	-0.2913024443061624	-0.009487078779056969	-0.3625525222692901	0.1928090354124729	-5.476210651821994e-08	-3.933207040254504e-07	2.554454809913248e-07	-3.876297133243958e-08	-6.706626916280443e-08	-2.951798839226071e-07	-6.034710900195016e-08
0.52	0.02333189760349955	0.01923317175380041	0.8464854641482336	0.6596768552060225	-0.3315565568354844	-0.1049950030787568	-0.7762529121598799	0.8531775231520764	0.8531775231527879	-0.1101365769933979	-0.1744882293985429	0.2327183951350937	0.04371035284951923	0.1777594768909839	-0.04242237456020235	-0.2627301868265067	0.8157404402391509	-0.05661376182459243	0.4620669469022959	-0.8239082480716493	1.498303840586959	1.498303840586966	0.1175671746980282	0.0001527184572892219	0.6100909460242532	0.1691768991771299	-0.1913738444097721	0.04170387110340632	-0.004869442270583086	-0.2495622683261245	0.0008815391275984662	0.03856091322418515	0.2816857749426487	-43.71835081476196	-11.7159041652779	4.410385804608022	1.127361306653642	-704.8204776579737	-73.60587729017304	-12.46336618946443	0.008920352285707422	0.3240666852098752	-0.09814157556296541	-1.170839678101928	0.1735061411861977	-0.5080200246141786	1.504593540242669	-1.47898007719655	-1.478980077196547	-0.2868788480007522	0.003303006508202178	-0.4125066961998943	0.1832424879381114	-9.445551413139376e-08	-1.83656006118418e-07	5.930574611439196e-07	1.950092635323297e-08	-1.123040460426239e-07	-3.109059807999606e-07	-8.178867784033748e-08
0.53	0.02510957264767296	0.01882516303817094	0.8438538927601749	0.6677743838502789	-0.3321144152173198	-0.100399477256594	-0.7844155434469805	0.8680841552804762	0.868084155280446	-0.1089766107473	-0.1744864190714963	0.238797614349527	0.04541041520422058	0.1777520531119138	-0.03917825606925639	-0.2635165926495924	0.803626317967447	-0.05496071443819305	0.456963493773162	-0.8085094172623459	1.482789096239277	1.482789096239326	0.1144305864658964	0.000197886686626384	0.6056655945936222	0.1708034073940443	-0.1948709929417389	0.04282491272707464	-0.005040333515791218	-0.2529522236438527	-0.002256339927038698	0.0386613045392205	0.2861462254873735	-44.89607142317489	-11.51172364017131	4.330350197132184	1.535572243820224	-708.0947055011632	-73.43183865147326	-11.88217641901793	-0.009106753929094588	0.3247613267740951	-0.05879257826268425	-1.252558464251152	0.1606640387854666	-0.5228103105635942	1.573816665737737	-1.62272632909894	-1.622726329092357	-0.3263571467926271	0.003547168594930448	-0.4706453943389258	0.1474515205657674	-1.086866482112096e-07	-3.93878753637351e-08	7.45379660259323e-07	5.179725679895619e-08	-1.288159855068943e-07	-2.875653543890625e-07	-8.766807494408993e-08
0.54	0.02688646685173498	0.01844963088659688	0.841216476815367	0.6757465992791549	-0.3326558511251415	-0.09585724643635966	-0.7924209286631112	0.8828286390221278	0.8828286390216989	-0.107847872050013	-0.1744844723751578	0.2448299608440745	0.04712576194748401	0.1776033088961038	-0.03592706174912324	-0.2638990981762581	0.7906777971939641	-0.05332926699486742	0.4514079465038833	-0.7924590338743818	1.465874163269786	1.465874163269877	0.1113216647947116	0.0001799924139419038	0.6007164020492161	0.1722337768908546	-0.1983681414739684	0.04394595435046075	-0.005211224756740926	-0.2563421789617903	-0.00539421898171509	0.03876169585398439	0.290606676031935	-46.07695788430792	-11.30613705023451	4.249118649612435	1.917713475238648	-711.4316091185163	-73.28959685755852	-11.30045948250409	-0.01934373506179043	0.3254818510474632	-0.01736151627892398	-1.337719378457948	0.1691861525718326	-0.5984388526430632	1.634904055975459	-1.759017801558509	-1.759017801558519	-0.2813455358113645	-0.00930949389630042	-0.5172749189547381	0.1440147439173197	-9.47467562541183e-08	3.252660662664544e-08	6.927003995037885e-07	5.536351285154364e-08	-1.135461474050249e-07	-2.21001970297545e-07	-7.632975012867169e-08
